<mxfile host="drawio-plugin" modified="2023-10-02T18:02:02.104Z" agent="5.0 (Windows NT 6.2; Win64; x64) AppleWebKit/537.36 (KHTML, like Gecko) Chrome/104.0.5112.102 Safari/537.36" etag="fHUsdnujPfpUWt16U2Ux" version="20.5.3" type="embed" pages="2"><diagram id="C5RBs43oDa-KdzZeNtuy" name="Fluxo da Request"><mxGraphModel dx="1583" dy="841" grid="1" gridSize="10" guides="1" tooltips="1" connect="1" arrows="1" fold="1" page="1" pageScale="1" pageWidth="827" pageHeight="1169" math="0" shadow="0"><root><mxCell id="WIyWlLk6GJQsqaUBKTNV-0"/><mxCell id="WIyWlLk6GJQsqaUBKTNV-1" parent="WIyWlLk6GJQsqaUBKTNV-0"/><mxCell id="WIyWlLk6GJQsqaUBKTNV-2" value="" style="rounded=0;html=1;jettySize=auto;orthogonalLoop=1;fontSize=11;endArrow=block;endFill=0;endSize=8;strokeWidth=1;shadow=0;labelBackgroundColor=none;edgeStyle=orthogonalEdgeStyle;" parent="WIyWlLk6GJQsqaUBKTNV-1" source="WIyWlLk6GJQsqaUBKTNV-3" target="WIyWlLk6GJQsqaUBKTNV-6" edge="1"><mxGeometry relative="1" as="geometry"/></mxCell><mxCell id="WIyWlLk6GJQsqaUBKTNV-3" value="REQUEST" style="rounded=1;whiteSpace=wrap;html=1;fontSize=12;glass=0;strokeWidth=1;shadow=0;" parent="WIyWlLk6GJQsqaUBKTNV-1" vertex="1"><mxGeometry x="190" y="80" width="120" height="40" as="geometry"/></mxCell><mxCell id="zXcbHp3fHS37iyAqupKW-9" style="edgeStyle=orthogonalEdgeStyle;rounded=0;orthogonalLoop=1;jettySize=auto;html=1;exitX=0.5;exitY=1;exitDx=0;exitDy=0;entryX=0.5;entryY=0;entryDx=0;entryDy=0;" parent="WIyWlLk6GJQsqaUBKTNV-1" source="WIyWlLk6GJQsqaUBKTNV-6" target="zXcbHp3fHS37iyAqupKW-6" edge="1"><mxGeometry relative="1" as="geometry"><mxPoint x="250" y="430" as="targetPoint"/></mxGeometry></mxCell><mxCell id="zXcbHp3fHS37iyAqupKW-10" style="edgeStyle=orthogonalEdgeStyle;rounded=0;orthogonalLoop=1;jettySize=auto;html=1;exitX=1;exitY=0;exitDx=0;exitDy=0;entryX=1;entryY=0.5;entryDx=0;entryDy=0;" parent="WIyWlLk6GJQsqaUBKTNV-1" source="WIyWlLk6GJQsqaUBKTNV-6" target="WIyWlLk6GJQsqaUBKTNV-3" edge="1"><mxGeometry relative="1" as="geometry"><Array as="points"><mxPoint x="330" y="271"/><mxPoint x="330" y="100"/></Array></mxGeometry></mxCell><mxCell id="WIyWlLk6GJQsqaUBKTNV-6" value="AUTH. FILTER JWT" style="rhombus;whiteSpace=wrap;html=1;shadow=0;fontFamily=Helvetica;fontSize=12;align=center;strokeWidth=1;spacing=6;spacingTop=-4;" parent="WIyWlLk6GJQsqaUBKTNV-1" vertex="1"><mxGeometry x="170" y="240" width="160" height="123" as="geometry"/></mxCell><mxCell id="WIyWlLk6GJQsqaUBKTNV-7" value="USER DETAILS SERVICE" style="rounded=1;whiteSpace=wrap;html=1;fontSize=12;glass=0;strokeWidth=1;shadow=0;" parent="WIyWlLk6GJQsqaUBKTNV-1" vertex="1"><mxGeometry x="466" y="282" width="120" height="40" as="geometry"/></mxCell><mxCell id="zXcbHp3fHS37iyAqupKW-0" value="DATABASE" style="shape=cylinder3;whiteSpace=wrap;html=1;boundedLbl=1;backgroundOutline=1;size=15;" parent="WIyWlLk6GJQsqaUBKTNV-1" vertex="1"><mxGeometry x="717" y="258.5" width="90" height="88.5" as="geometry"/></mxCell><mxCell id="zXcbHp3fHS37iyAqupKW-11" style="edgeStyle=orthogonalEdgeStyle;rounded=0;orthogonalLoop=1;jettySize=auto;html=1;exitX=0;exitY=0.5;exitDx=0;exitDy=0;entryX=0;entryY=0.5;entryDx=0;entryDy=0;" parent="WIyWlLk6GJQsqaUBKTNV-1" source="zXcbHp3fHS37iyAqupKW-6" target="WIyWlLk6GJQsqaUBKTNV-3" edge="1"><mxGeometry relative="1" as="geometry"/></mxCell><mxCell id="zXcbHp3fHS37iyAqupKW-25" value="INVALID JWT | STATUS 403" style="edgeLabel;html=1;align=center;verticalAlign=middle;resizable=0;points=[];rotation=90;fontSize=13;" parent="zXcbHp3fHS37iyAqupKW-11" vertex="1" connectable="0"><mxGeometry x="-0.0336" y="2" relative="1" as="geometry"><mxPoint x="-19" as="offset"/></mxGeometry></mxCell><mxCell id="zXcbHp3fHS37iyAqupKW-20" style="edgeStyle=orthogonalEdgeStyle;rounded=0;orthogonalLoop=1;jettySize=auto;html=1;entryX=0.5;entryY=0;entryDx=0;entryDy=0;" parent="WIyWlLk6GJQsqaUBKTNV-1" source="zXcbHp3fHS37iyAqupKW-6" target="zXcbHp3fHS37iyAqupKW-15" edge="1"><mxGeometry relative="1" as="geometry"/></mxCell><mxCell id="zXcbHp3fHS37iyAqupKW-6" value="VALIDATE TOKEN" style="rhombus;whiteSpace=wrap;html=1;shadow=0;fontFamily=Helvetica;fontSize=12;align=center;strokeWidth=1;spacing=6;spacingTop=-4;" parent="WIyWlLk6GJQsqaUBKTNV-1" vertex="1"><mxGeometry x="170" y="470" width="160" height="123" as="geometry"/></mxCell><mxCell id="zXcbHp3fHS37iyAqupKW-7" value="JWT SERVICE" style="rounded=1;whiteSpace=wrap;html=1;fontSize=12;glass=0;strokeWidth=1;shadow=0;" parent="WIyWlLk6GJQsqaUBKTNV-1" vertex="1"><mxGeometry x="467" y="511" width="120" height="40" as="geometry"/></mxCell><mxCell id="zXcbHp3fHS37iyAqupKW-12" value="" style="endArrow=classic;startArrow=classic;html=1;rounded=0;exitX=1;exitY=0.5;exitDx=0;exitDy=0;entryX=0;entryY=0.5;entryDx=0;entryDy=0;" parent="WIyWlLk6GJQsqaUBKTNV-1" source="WIyWlLk6GJQsqaUBKTNV-6" target="WIyWlLk6GJQsqaUBKTNV-7" edge="1"><mxGeometry width="50" height="50" relative="1" as="geometry"><mxPoint x="420" y="430" as="sourcePoint"/><mxPoint x="460" y="300" as="targetPoint"/></mxGeometry></mxCell><mxCell id="zXcbHp3fHS37iyAqupKW-13" value="" style="endArrow=classic;startArrow=classic;html=1;rounded=0;exitX=1;exitY=0.5;exitDx=0;exitDy=0;entryX=0;entryY=0.5;entryDx=0;entryDy=0;entryPerimeter=0;" parent="WIyWlLk6GJQsqaUBKTNV-1" source="WIyWlLk6GJQsqaUBKTNV-7" target="zXcbHp3fHS37iyAqupKW-0" edge="1"><mxGeometry width="50" height="50" relative="1" as="geometry"><mxPoint x="340" y="312" as="sourcePoint"/><mxPoint x="476" y="312" as="targetPoint"/></mxGeometry></mxCell><mxCell id="zXcbHp3fHS37iyAqupKW-14" value="" style="endArrow=classic;startArrow=classic;html=1;rounded=0;exitX=1;exitY=0.5;exitDx=0;exitDy=0;entryX=0;entryY=0.5;entryDx=0;entryDy=0;" parent="WIyWlLk6GJQsqaUBKTNV-1" source="zXcbHp3fHS37iyAqupKW-6" target="zXcbHp3fHS37iyAqupKW-7" edge="1"><mxGeometry width="50" height="50" relative="1" as="geometry"><mxPoint x="340" y="312" as="sourcePoint"/><mxPoint x="476" y="312" as="targetPoint"/></mxGeometry></mxCell><mxCell id="zXcbHp3fHS37iyAqupKW-21" style="edgeStyle=orthogonalEdgeStyle;rounded=0;orthogonalLoop=1;jettySize=auto;html=1;entryX=0.5;entryY=0;entryDx=0;entryDy=0;" parent="WIyWlLk6GJQsqaUBKTNV-1" source="zXcbHp3fHS37iyAqupKW-15" target="zXcbHp3fHS37iyAqupKW-16" edge="1"><mxGeometry relative="1" as="geometry"/></mxCell><mxCell id="zXcbHp3fHS37iyAqupKW-15" value="SECURITY CONTEXT HOLDER" style="rounded=1;whiteSpace=wrap;html=1;fontSize=12;glass=0;strokeWidth=1;shadow=0;" parent="WIyWlLk6GJQsqaUBKTNV-1" vertex="1"><mxGeometry x="190" y="700" width="120" height="40" as="geometry"/></mxCell><mxCell id="zXcbHp3fHS37iyAqupKW-22" style="edgeStyle=orthogonalEdgeStyle;rounded=0;orthogonalLoop=1;jettySize=auto;html=1;entryX=0.5;entryY=0;entryDx=0;entryDy=0;" parent="WIyWlLk6GJQsqaUBKTNV-1" source="zXcbHp3fHS37iyAqupKW-16" target="zXcbHp3fHS37iyAqupKW-17" edge="1"><mxGeometry relative="1" as="geometry"/></mxCell><mxCell id="zXcbHp3fHS37iyAqupKW-16" value="DISPATCHER SERVLET" style="rounded=1;whiteSpace=wrap;html=1;fontSize=12;glass=0;strokeWidth=1;shadow=0;" parent="WIyWlLk6GJQsqaUBKTNV-1" vertex="1"><mxGeometry x="190" y="810" width="120" height="40" as="geometry"/></mxCell><mxCell id="zXcbHp3fHS37iyAqupKW-18" style="edgeStyle=orthogonalEdgeStyle;rounded=0;orthogonalLoop=1;jettySize=auto;html=1;exitX=0;exitY=0.5;exitDx=0;exitDy=0;entryX=0.5;entryY=0;entryDx=0;entryDy=0;" parent="WIyWlLk6GJQsqaUBKTNV-1" source="zXcbHp3fHS37iyAqupKW-17" target="WIyWlLk6GJQsqaUBKTNV-3" edge="1"><mxGeometry relative="1" as="geometry"><mxPoint x="80" y="90" as="targetPoint"/><mxPoint x="80" y="920" as="sourcePoint"/><Array as="points"><mxPoint x="100" y="940"/><mxPoint x="100" y="60"/><mxPoint x="250" y="60"/></Array></mxGeometry></mxCell><mxCell id="zXcbHp3fHS37iyAqupKW-23" value="RESPONSE : 200 OK" style="edgeLabel;html=1;align=center;verticalAlign=middle;resizable=0;points=[];rotation=90;fontSize=21;" parent="zXcbHp3fHS37iyAqupKW-18" vertex="1" connectable="0"><mxGeometry x="0.2386" y="-1" relative="1" as="geometry"><mxPoint x="-17" y="56" as="offset"/></mxGeometry></mxCell><mxCell id="zXcbHp3fHS37iyAqupKW-17" value="CONTROLLER" style="rounded=1;whiteSpace=wrap;html=1;fontSize=12;glass=0;strokeWidth=1;shadow=0;" parent="WIyWlLk6GJQsqaUBKTNV-1" vertex="1"><mxGeometry x="190" y="920" width="120" height="40" as="geometry"/></mxCell><mxCell id="zXcbHp3fHS37iyAqupKW-24" value="MISSING JWT | STATUS 403" style="text;html=1;align=center;verticalAlign=middle;resizable=0;points=[];autosize=1;strokeColor=none;fillColor=none;rotation=270;fontSize=13;" parent="WIyWlLk6GJQsqaUBKTNV-1" vertex="1"><mxGeometry x="259" y="168" width="190" height="30" as="geometry"/></mxCell></root></mxGraphModel></diagram><diagram id="I2T0wfH6e0jFUpK6XGT8" name="Page-2"><mxGraphModel dx="896" dy="589" grid="1" gridSize="10" guides="1" tooltips="1" connect="1" arrows="1" fold="1" page="1" pageScale="1" pageWidth="850" pageHeight="1100" math="0" shadow="0"><root><mxCell id="0"/><mxCell id="1" parent="0"/><mxCell id="GPaFlAXbsWyeNIQDDrSG-4" value="User : UserDetails" style="swimlane;fontStyle=0;childLayout=stackLayout;horizontal=1;startSize=26;horizontalStack=0;resizeParent=1;resizeParentMax=0;resizeLast=0;collapsible=1;marginBottom=0;align=center;fontSize=14;" vertex="1" parent="1"><mxGeometry x="20" y="30" width="160" height="146" as="geometry"/></mxCell><mxCell id="GPaFlAXbsWyeNIQDDrSG-5" value="Id" style="text;strokeColor=none;fillColor=none;spacingLeft=4;spacingRight=4;overflow=hidden;rotatable=0;points=[[0,0.5],[1,0.5]];portConstraint=eastwest;fontSize=12;" vertex="1" parent="GPaFlAXbsWyeNIQDDrSG-4"><mxGeometry y="26" width="160" height="30" as="geometry"/></mxCell><mxCell id="GPaFlAXbsWyeNIQDDrSG-6" value="username" style="text;strokeColor=none;fillColor=none;spacingLeft=4;spacingRight=4;overflow=hidden;rotatable=0;points=[[0,0.5],[1,0.5]];portConstraint=eastwest;fontSize=12;" vertex="1" parent="GPaFlAXbsWyeNIQDDrSG-4"><mxGeometry y="56" width="160" height="30" as="geometry"/></mxCell><mxCell id="GPaFlAXbsWyeNIQDDrSG-13" value="password" style="text;strokeColor=none;fillColor=none;spacingLeft=4;spacingRight=4;overflow=hidden;rotatable=0;points=[[0,0.5],[1,0.5]];portConstraint=eastwest;fontSize=12;" vertex="1" parent="GPaFlAXbsWyeNIQDDrSG-4"><mxGeometry y="86" width="160" height="30" as="geometry"/></mxCell><mxCell id="GPaFlAXbsWyeNIQDDrSG-7" value="role" style="text;strokeColor=none;fillColor=none;spacingLeft=4;spacingRight=4;overflow=hidden;rotatable=0;points=[[0,0.5],[1,0.5]];portConstraint=eastwest;fontSize=12;" vertex="1" parent="GPaFlAXbsWyeNIQDDrSG-4"><mxGeometry y="116" width="160" height="30" as="geometry"/></mxCell><mxCell id="GPaFlAXbsWyeNIQDDrSG-14" style="edgeStyle=orthogonalEdgeStyle;rounded=0;orthogonalLoop=1;jettySize=auto;html=1;entryX=1;entryY=0.5;entryDx=0;entryDy=0;fontSize=15;" edge="1" parent="1" source="GPaFlAXbsWyeNIQDDrSG-8" target="GPaFlAXbsWyeNIQDDrSG-7"><mxGeometry relative="1" as="geometry"/></mxCell><mxCell id="GPaFlAXbsWyeNIQDDrSG-8" value="Role" style="swimlane;fontStyle=0;childLayout=stackLayout;horizontal=1;startSize=26;horizontalStack=0;resizeParent=1;resizeParentMax=0;resizeLast=0;collapsible=1;marginBottom=0;align=center;fontSize=14;" vertex="1" parent="1"><mxGeometry x="20" y="210" width="160" height="86" as="geometry"/></mxCell><mxCell id="GPaFlAXbsWyeNIQDDrSG-9" value="USER" style="text;strokeColor=none;fillColor=none;spacingLeft=4;spacingRight=4;overflow=hidden;rotatable=0;points=[[0,0.5],[1,0.5]];portConstraint=eastwest;fontSize=12;" vertex="1" parent="GPaFlAXbsWyeNIQDDrSG-8"><mxGeometry y="26" width="160" height="30" as="geometry"/></mxCell><mxCell id="GPaFlAXbsWyeNIQDDrSG-10" value="ADMIN" style="text;strokeColor=none;fillColor=none;spacingLeft=4;spacingRight=4;overflow=hidden;rotatable=0;points=[[0,0.5],[1,0.5]];portConstraint=eastwest;fontSize=12;" vertex="1" parent="GPaFlAXbsWyeNIQDDrSG-8"><mxGeometry y="56" width="160" height="30" as="geometry"/></mxCell><mxCell id="GPaFlAXbsWyeNIQDDrSG-15" value="UserDetails" style="swimlane;childLayout=stackLayout;horizontal=1;startSize=30;horizontalStack=0;rounded=1;fontSize=14;fontStyle=0;strokeWidth=2;resizeParent=0;resizeLast=1;shadow=0;dashed=0;align=center;" vertex="1" parent="1"><mxGeometry x="20" y="390" width="190" height="160" as="geometry"/></mxCell><mxCell id="GPaFlAXbsWyeNIQDDrSG-16" value="getAuthorities()&#10;getUsername()&#10;getPassord()&#10;isAccountNonExpired()&#10;isAccountNonLocked()&#10;isCredentialsNonExpired()&#10;isEnable()" style="align=left;strokeColor=none;fillColor=none;spacingLeft=4;fontSize=14;verticalAlign=middle;resizable=0;rotatable=0;part=1;" vertex="1" parent="GPaFlAXbsWyeNIQDDrSG-15"><mxGeometry y="30" width="190" height="130" as="geometry"/></mxCell><mxCell id="GPaFlAXbsWyeNIQDDrSG-17" value="JwtAutheticationFilter : OncePerRequestFilter" style="swimlane;fontStyle=0;childLayout=stackLayout;horizontal=1;startSize=50;horizontalStack=0;resizeParent=1;resizeParentMax=0;resizeLast=0;collapsible=1;marginBottom=0;align=center;fontSize=14;whiteSpace=wrap;" vertex="1" parent="1"><mxGeometry x="345" y="176" width="160" height="80" as="geometry"/></mxCell><mxCell id="GPaFlAXbsWyeNIQDDrSG-18" value="doFilterInternal()" style="text;strokeColor=none;fillColor=none;spacingLeft=4;spacingRight=4;overflow=hidden;rotatable=0;points=[[0,0.5],[1,0.5]];portConstraint=eastwest;fontSize=12;" vertex="1" parent="GPaFlAXbsWyeNIQDDrSG-17"><mxGeometry y="50" width="160" height="30" as="geometry"/></mxCell><mxCell id="GPaFlAXbsWyeNIQDDrSG-22" value="JwtService" style="swimlane;fontStyle=0;childLayout=stackLayout;horizontal=1;startSize=26;horizontalStack=0;resizeParent=1;resizeParentMax=0;resizeLast=0;collapsible=1;marginBottom=0;align=center;fontSize=14;" vertex="1" parent="1"><mxGeometry x="550" y="176" width="160" height="86" as="geometry"/></mxCell><mxCell id="GPaFlAXbsWyeNIQDDrSG-23" value="extractClaims()" style="text;strokeColor=none;fillColor=none;spacingLeft=4;spacingRight=4;overflow=hidden;rotatable=0;points=[[0,0.5],[1,0.5]];portConstraint=eastwest;fontSize=12;" vertex="1" parent="GPaFlAXbsWyeNIQDDrSG-22"><mxGeometry y="26" width="160" height="30" as="geometry"/></mxCell><mxCell id="GPaFlAXbsWyeNIQDDrSG-24" value="extratctClaims()" style="text;strokeColor=none;fillColor=none;spacingLeft=4;spacingRight=4;overflow=hidden;rotatable=0;points=[[0,0.5],[1,0.5]];portConstraint=eastwest;fontSize=12;" vertex="1" parent="GPaFlAXbsWyeNIQDDrSG-22"><mxGeometry y="56" width="160" height="30" as="geometry"/></mxCell><mxCell id="GPaFlAXbsWyeNIQDDrSG-27" value="Security Context Handler" style="swimlane;fontStyle=0;childLayout=stackLayout;horizontal=1;startSize=26;horizontalStack=0;resizeParent=1;resizeParentMax=0;resizeLast=0;collapsible=1;marginBottom=0;align=center;fontSize=14;" vertex="1" parent="1"><mxGeometry x="345" y="304" width="160" height="86" as="geometry"/></mxCell><mxCell id="GPaFlAXbsWyeNIQDDrSG-28" value="extractClaims()" style="text;strokeColor=none;fillColor=none;spacingLeft=4;spacingRight=4;overflow=hidden;rotatable=0;points=[[0,0.5],[1,0.5]];portConstraint=eastwest;fontSize=12;" vertex="1" parent="GPaFlAXbsWyeNIQDDrSG-27"><mxGeometry y="26" width="160" height="30" as="geometry"/></mxCell><mxCell id="GPaFlAXbsWyeNIQDDrSG-29" value="extratctClaims()" style="text;strokeColor=none;fillColor=none;spacingLeft=4;spacingRight=4;overflow=hidden;rotatable=0;points=[[0,0.5],[1,0.5]];portConstraint=eastwest;fontSize=12;" vertex="1" parent="GPaFlAXbsWyeNIQDDrSG-27"><mxGeometry y="56" width="160" height="30" as="geometry"/></mxCell></root></mxGraphModel></diagram></mxfile>